# xmcd CD database file
#
# Track frame offsets:
#	150
#	1184
#	15102
#	26081
#	48948
#	61369
#	75002
#	86442
#	95282
#	113867
#	127237
#	151819
#	162292
#	177359
#	192920
#	211355
#	226911
#
# Disc length: 3048 seconds
#
# Revision: 0
# Processed by: cddbd v1.4PL0 Copyright (c) Steve Scherf et al.
# Submitted via: Feurio! 1.61 - http://www.feurio.com
#
DISCID=c00be611
DTITLE=B.B. and the Bluesshacks - Midnite Diner
DYEAR=1900
DGENRE=
TTITLE0=Intro
TTITLE1=Take a chance
TTITLE2=Oh Little Girl
TTITLE3=Five To Twelve Blues
TTITLE4=Strange Kind of Feeling
TTITLE5=Till I made up my mind
TTITLE6=Rob my Soul
TTITLE7=Tempo Twist
TTITLE8=You better don't wanna know
TTITLE9=Whole lotta Love
TTITLE10=Moonshine Blues
TTITLE11=If you want me to love you
TTITLE12=Your cash ain't nothing but trash
TTITLE13=I'm gonna miss you (Like the devil)
TTITLE14=Midnight Diner
TTITLE15=One more Drink
TTITLE16=Outro
EXTD=
EXTT0=
EXTT1=
EXTT2=
EXTT3=
EXTT4=
EXTT5=
EXTT6=
EXTT7=
EXTT8=
EXTT9=
EXTT10=
EXTT11=
EXTT12=
EXTT13=
EXTT14=
EXTT15=
EXTT16=
PLAYORDER=
